<svg xmlns="http://www.w3.org/2000/svg" viewBox="0 0 512.003 512.003"><path d="M508.605 1.724a8.544 8.544 0 0 0-7.484-1.391l-89.6 25.6 4.685 16.41 78.729-22.494V462.9l-111.01 31.718-125.722-33.528a8.558 8.558 0 0 0-4.403 0l-125.722 33.527-111.01-31.718V19.849l108.587 31.019a8.494 8.494 0 0 0 4.548.043l125.798-33.544 74.598 19.9 4.403-16.495-76.8-20.48a8.558 8.558 0 0 0-4.403 0L128.078 33.818 10.882.333a8.544 8.544 0 0 0-7.484 1.391 8.515 8.515 0 0 0-3.396 6.81v460.8a8.546 8.546 0 0 0 6.187 8.209l119.467 34.133a8.484 8.484 0 0 0 4.548.034l125.798-33.545L381.8 511.71c.725.188 1.459.29 2.202.29.794 0 1.579-.111 2.338-.324l119.467-34.133a8.543 8.543 0 0 0 6.195-8.209V8.533a8.515 8.515 0 0 0-3.397-6.809z"/><path d="M107.863 256a53.997 53.997 0 0 0-30.08 9.114c-12.032 8.03-20.224 20.275-23.057 34.466-2.833 14.2.034 28.655 8.064 40.687l37.973 57.003a8.535 8.535 0 0 0 7.1 3.797 8.523 8.523 0 0 0 7.1-3.797l37.973-57.003a54.068 54.068 0 0 0 9.114-30.08c0-29.876-24.312-54.187-54.187-54.187zm30.874 74.803l-30.874 46.345-30.874-46.345c-5.504-8.252-7.475-18.15-5.53-27.878 1.937-9.728 7.552-18.108 15.795-23.612a37.018 37.018 0 0 1 20.608-6.246c20.471 0 37.12 16.649 37.12 37.12a37.056 37.056 0 0 1-6.245 20.616z"/><circle cx="107.863" cy="307.2" r="17.067"/><path d="M375.468 0a53.988 53.988 0 0 0-30.071 9.114c-24.849 16.589-31.582 50.295-15.002 75.145l37.973 57.003a8.531 8.531 0 0 0 14.208 0l37.973-56.994a53.997 53.997 0 0 0 9.114-30.08C429.655 24.311 405.344 0 375.468 0zm30.874 74.795l-30.874 46.345-30.874-46.353c-11.358-17.024-6.75-40.115 10.274-51.482a37.003 37.003 0 0 1 20.599-6.238c20.471 0 37.12 16.657 37.12 37.112a37.058 37.058 0 0 1-6.245 20.616z"/><circle cx="375.468" cy="51.2" r="17.067"/><path d="M435.202 213.333h-25.6c-14.114 0-25.6-11.486-25.6-25.6v-25.6h-17.067v25.6c0 23.526 19.14 42.667 42.667 42.667h25.6c14.114 0 25.6 11.486 25.6 25.6s-11.486 25.6-25.6 25.6h-179.2c-23.526 0-42.667 19.14-42.667 42.667 0 23.526 19.14 42.667 42.667 42.667h85.333c14.114 0 25.6 11.486 25.6 25.6s-11.486 25.6-25.6 25.6H102.402V435.2h238.933c23.526 0 42.667-19.14 42.667-42.667 0-23.526-19.14-42.667-42.667-42.667h-85.333c-14.114 0-25.6-11.486-25.6-25.6s11.486-25.6 25.6-25.6h179.2c23.526 0 42.667-19.14 42.667-42.667-.001-23.525-19.141-42.666-42.667-42.666z"/><path d="M458.301 147.567L441.235 130.5a8.525 8.525 0 0 0-12.066 0l-17.067 17.067a8.513 8.513 0 0 0-2.5 6.033v25.6a8.53 8.53 0 0 0 8.533 8.533h34.133a8.53 8.53 0 0 0 8.533-8.533v-25.6a8.504 8.504 0 0 0-2.5-6.033zm-14.566 23.1h-17.067v-13.534l8.533-8.533 8.533 8.533v13.534zM315.291 125.303l-17.067-51.2c-1.152-3.49-4.412-5.837-8.09-5.837s-6.929 2.347-8.098 5.828l-17.067 51.2a8.527 8.527 0 0 0 1.169 7.689 8.54 8.54 0 0 0 6.929 3.55H307.2c2.739 0 5.316-1.314 6.921-3.541s2.049-5.086 1.17-7.689zm-30.378-5.836l5.222-15.684 5.231 15.684h-10.453z"/><path d="M281.602 128h17.067v25.6h-17.067zM460.358 406.903l-17.067-51.2c-1.152-3.49-4.412-5.837-8.09-5.837s-6.929 2.347-8.098 5.837l-17.067 51.2a8.531 8.531 0 0 0 1.169 7.689 8.556 8.556 0 0 0 6.929 3.541h34.133a8.53 8.53 0 0 0 6.921-3.541 8.493 8.493 0 0 0 1.17-7.689zm-30.379-5.836l5.222-15.684 5.231 15.684h-10.453z"/><path d="M426.668 409.6h17.067v25.6h-17.067zM143.362 148.48c-3.217-4.301-10.436-4.301-13.653 0l-25.6 34.133 13.653 10.24 18.773-25.028 18.773 25.028 13.653-10.24-25.599-34.133z"/><path d="M100.695 131.413c-1.664-2.21-4.344-3.507-7.066-3.405a8.535 8.535 0 0 0-6.861 3.797l-34.133 51.2 14.199 9.464 27.443-41.165 18.364 24.482 13.653-10.24-25.599-34.133zM279.101 215.834l-17.067-17.067a8.523 8.523 0 0 0-12.066 0l-17.067 17.067a8.513 8.513 0 0 0-2.5 6.033v25.6a8.536 8.536 0 0 0 8.533 8.533h34.133a8.53 8.53 0 0 0 8.533-8.533v-25.6a8.496 8.496 0 0 0-2.499-6.033zm-14.566 23.099h-17.067v-13.534l8.533-8.533 8.533 8.533v13.534zM247.033 125.303l-17.067-51.2c-1.161-3.49-4.42-5.837-8.098-5.837s-6.929 2.347-8.098 5.828l-17.067 51.2a8.55 8.55 0 0 0 1.178 7.689 8.512 8.512 0 0 0 6.921 3.55h34.133c2.739 0 5.316-1.314 6.921-3.541s2.048-5.086 1.177-7.689zm-30.396-5.836l5.231-15.684 5.231 15.684h-10.462z"/><path d="M213.335 128h17.067v25.6h-17.067z"/></svg>