<?xml version="1.0" standalone="no"?>
<!DOCTYPE svg PUBLIC "-//W3C//DTD SVG 20010904//EN"
 "http://www.w3.org/TR/2001/REC-SVG-20010904/DTD/svg10.dtd">
<svg version="1.0" xmlns="http://www.w3.org/2000/svg"
 width="120.000000pt" height="120.000000pt" viewBox="0 0 120.000000 120.000000"
 preserveAspectRatio="xMidYMid meet">
<metadata>
Created by potrace 1.11, written by Peter Selinger 2001-2013
</metadata>
<g transform="translate(0.000000,120.000000) scale(0.100000,-0.100000)"
fill="#000000" stroke="none">
<path d="M451 1172 c-10 -10 -12 -31 -8 -81 8 -81 8 -81 34 -148 3 -10 5 -21
5 -25 -1 -5 3 -8 10 -8 6 0 9 -3 5 -6 -8 -8 34 -54 49 -54 28 0 35 99 14 183
-16 62 -60 145 -79 150 -9 2 -23 -3 -30 -11z"/>
<path d="M695 1166 c-15 -15 -23 -31 -20 -36 3 -6 2 -10 -3 -10 -29 0 -55
-229 -29 -264 13 -18 14 -18 39 5 56 53 94 274 54 314 -14 15 -18 14 -41 -9z"/>
<path d="M246 1049 c-15 -23 -12 -38 20 -101 26 -50 103 -126 141 -139 41 -13
46 -9 45 31 -1 59 -91 178 -160 214 -29 15 -32 15 -46 -5z"/>
<path d="M480 682 c-8 -2 -38 -15 -66 -28 -183 -88 -240 -351 -113 -521 22
-29 52 -61 67 -70 15 -10 29 -20 32 -24 13 -16 91 -33 155 -34 85 -2 141 19
205 75 25 22 61 45 80 51 19 7 55 21 80 32 25 11 49 19 54 18 5 -1 12 2 15 6
6 8 60 36 73 37 4 1 12 6 18 12 12 12 -78 102 -166 167 -31 22 -55 48 -58 63
-15 60 -101 164 -148 180 -10 3 -18 9 -18 13 0 4 -6 8 -12 9 -23 2 -43 7 -55
15 -13 8 -116 7 -143 -1z"/>
</g>
</svg>
