<svg xmlns="http://www.w3.org/2000/svg" viewBox="0 0 480 480"><path d="M470.68 322.77a26.09 26.09 0 0 0-21.3-5.75L296 343.7v-54.75c11.82-.72 33.6-4.14 48.6-19.15 21.05-21.02 19.4-55.55 19.31-57a7.97 7.97 0 0 0-7.54-7.55c-1.45-.13-36-1.73-57.01 19.3-1.2 1.2-2.3 2.45-3.36 3.72V201c11.82-.72 33.6-4.13 48.6-19.14 21.05-21.03 19.4-55.55 19.31-57a7.97 7.97 0 0 0-7.54-7.55c-1.45-.12-36-1.73-57.01 19.3-1.2 1.2-2.3 2.46-3.36 3.73v-23.76l44.9-43.97c7.16-7 11.1-16.35 11.1-26.29 0-9.94-3.94-19.29-11.1-26.3h-.01C326.33 5.76 302.7 5.66 288 19.69c-14.71-14.04-38.33-13.93-52.9.34a36.55 36.55 0 0 0-11.1 26.3c0 9.93 3.94 19.27 11.11 26.29L280 116.57v23.76a52.33 52.33 0 0 0-3.36-3.73c-21.02-21.04-55.56-19.41-57-19.3a7.97 7.97 0 0 0-7.55 7.54c-.09 1.46-1.74 35.99 19.3 57.01 15.02 15.02 36.79 18.43 48.61 19.14v27.28a50.64 50.64 0 0 0-3.36-3.73c-21.02-21.03-55.54-19.42-57-19.3a7.97 7.97 0 0 0-7.55 7.55c-.09 1.45-1.74 35.98 19.3 57 15.02 15.03 36.79 18.44 48.61 19.15v44.95l-34.34-34.34a8 8 0 0 0-5.66-2.34h-80a8 8 0 0 0-8-8H0v16h112v112H0v16h152a8 8 0 0 0 8-8h22.11l85.53 42.77a26.1 26.1 0 0 0 24.86-.8l174.53-101.8A26.21 26.21 0 0 0 480 342.78c0-7.74-3.4-15.04-9.32-20.02zm-160-86.92c10.78-10.78 27.38-13.68 37.07-14.42-.73 9.66-3.6 26.2-14.45 37.05-10.79 10.79-27.4 13.68-37.08 14.43.73-9.67 3.61-26.21 14.45-37.06zm0-87.94c10.78-10.79 27.38-13.68 37.07-14.43-.73 9.67-3.6 26.21-14.45 37.06-10.78 10.77-27.36 13.67-37.05 14.42.75-9.69 3.65-26.27 14.42-37.05zm-67.98 22.63c-10.79-10.79-13.68-27.4-14.43-37.08 9.67.73 26.21 3.6 37.06 14.45 10.77 10.78 13.67 27.36 14.42 37.05-9.69-.75-26.27-3.65-37.05-14.42zm0 87.94c-10.79-10.78-13.68-27.4-14.43-37.08 9.67.73 26.21 3.6 37.06 14.45 10.77 10.79 13.67 27.37 14.42 37.06-9.69-.76-26.27-3.65-37.05-14.43zM144 417.21h-16v-112h16v112zM246.3 61.2a20.7 20.7 0 0 1 0-29.73 21.98 21.98 0 0 1 15.43-6.25c5.57 0 11.17 2.09 15.42 6.25l5.26 5.15a7.98 7.98 0 0 0 11.18 0l5.26-5.15a22.18 22.18 0 0 1 30.84 0 20.66 20.66 0 0 1 .01 29.72L288 102.02l-41.7-40.83zm212.67 290.36L284.45 453.36a10.1 10.1 0 0 1-9.65.3l-87.22-43.6a7.98 7.98 0 0 0-3.58-.85h-24v-96h76.69l63.03 63.03a14.64 14.64 0 0 1-20.69 20.69l-41.37-41.37-11.32 11.3 41.38 41.38a30.42 30.42 0 0 0 21.66 8.97A30.67 30.67 0 0 0 320 386.6c0-8.18-3.18-15.87-8.97-21.66l-6.48-6.48L452.1 332.8c2.98-.54 5.98.3 8.28 2.23a10.13 10.13 0 0 1-1.41 16.53z"/><path d="M168 33.21h-16c0 13.23-10.77 24-24 24v16c13.23 0 24 10.77 24 24h16c0-13.23 10.77-24 24-24v-16c-13.23 0-24-10.77-24-24zm-8 40.25a39.9 39.9 0 0 0-8.25-8.25 39.9 39.9 0 0 0 8.25-8.25 39.9 39.9 0 0 0 8.25 8.25 39.9 39.9 0 0 0-8.25 8.25zM120 105.21h-16c0 13.23-10.77 24-24 24v16c13.23 0 24 10.77 24 24h16c0-13.23 10.77-24 24-24v-16c-13.23 0-24-10.77-24-24zm-8 40.25a39.9 39.9 0 0 0-8.25-8.25 39.9 39.9 0 0 0 8.25-8.25 39.9 39.9 0 0 0 8.25 8.25 39.9 39.9 0 0 0-8.25 8.25zM424 65.21h-16c0 13.23-10.77 24-24 24v16c13.23 0 24 10.77 24 24h16c0-13.23 10.77-24 24-24v-16c-13.23 0-24-10.77-24-24zm-8 40.25a39.9 39.9 0 0 0-8.25-8.25 39.9 39.9 0 0 0 8.25-8.25 39.9 39.9 0 0 0 8.25 8.25 39.9 39.9 0 0 0-8.25 8.25zM144 257.21h16v16h-16zM112 257.21h16v16h-16zM80 257.21h16v16H80z"/></svg>