<svg xmlns="http://www.w3.org/2000/svg" viewBox="0 0 295.24 295.24"><path d="M277.46.09l-27.68 20.72-27.84 64.9h-22.38l-8.8-19.04h5.75c10.5 0 19.05-8.46 19.05-18.96V28.57h9.52V0h-28.57v28.57h9.52v19.14a9.46 9.46 0 0 1-9.52 9.43h-10.14L174.2 30.81l14.58-7.27L141.04 3.1 129.8 42.38A42.89 42.89 0 0 0 87 .08a42.9 42.9 0 0 0-42.86 42.86 43 43 0 0 0 19.05 35.6v7.17H51.64l-.74 3.9c-2.31 12.01-2.53 24.35-.64 36.66l-32.48 57.9 35.87 8.2v60.01h47.62v42.86h114.29v-66.36c33.33-23.58 52.37-61.5 52.34-101.94l.01-17.37c0-6.55-.6-13.28-1.82-19.9l-.7-3.96h-9.36l21.43-51.33V.09zm-71.43 19.05V9.6h9.53v9.53h-9.53zM189.07 85.7H171l-8.66-19.04h17.93l8.79 19.04zm-41.85-69.6l18.93 8.12-4.47 2.19 14.2 30.72h-17.86l-11.6-25.47-4.27 2.15 5.07-17.7zm13.32 69.6h-21.17v-9.43a9.61 9.61 0 0 1 9.52-9.61h3l8.65 19.05zm-18.7-41.06l5.78 12.71a19 19 0 0 0-17.78 18.92v9.43H110.8v-7.17a43.03 43.03 0 0 0 18.18-27.45l12.87-6.44zm-88.19-1.7A33.38 33.38 0 0 1 87 9.6a33.38 33.38 0 0 1 33.33 33.34 33.46 33.46 0 0 1-16.67 28.84l-2.38 1.37V85.7h-9.52V56.35a14.27 14.27 0 0 0 9.52-13.4A14.3 14.3 0 0 0 87 28.64a14.3 14.3 0 0 0-14.29 14.3c0 6.2 4 11.43 9.52 13.4v29.36H72.7V73.16l-2.38-1.38a33.45 33.45 0 0 1-16.67-28.83zM87 47.7a4.77 4.77 0 1 1 0-9.53 4.77 4.77 0 0 1 0 9.53zm170.38 47.53c.69 4.76 1.03 9.59 1.03 14.28l.01 17.4a115.95 115.95 0 0 1-50.28 95.56l-2.1 1.43v61.8H110.8v-42.85H63.18v-58.09l-30.87-7.04 27.88-49.7-.27-1.7c-1.77-10.42-1.87-21.57-.33-31.1H257.37zM245.7 85.7H232.3l23.74-55.34 10.55 5.26-20.88 50.08zm22.23-60l-5.27-2.63 5.27-3.94v6.57z"/><path d="M96.51 123.81c-7.88 0-14.29-4.76-14.29-14.29H72.7c0 14.29 10.68 23.81 23.81 23.81 13.13 0 23.81-9.52 23.81-23.8h-9.52c0 9.52-6.41 14.28-14.29 14.28z"/></svg>