<svg xmlns="http://www.w3.org/2000/svg" viewBox="0 0 512 512"><path d="M179.2 341.33c-2.48 0-9.47-7.68-14.1-12.77-13.94-15.3-35-38.43-71.23-38.43-35.27 0-42.67 9.28-42.67 17.07a8.53 8.53 0 0 0 16.3 3.54c1.68-.93 8.05-3.54 26.36-3.54 28.7 0 45.3 18.22 58.61 32.85 9.34 10.25 16.71 18.35 26.73 18.35h110.93a8.53 8.53 0 1 0 0-17.07H179.2zM201.27 67.5c.92 1.69 3.53 8.05 3.53 26.37 0 28.69-18.22 45.27-32.86 58.6-10.25 9.34-18.34 16.71-18.34 26.73v110.93a8.53 8.53 0 1 0 17.07 0V179.2c0-2.48 7.68-9.47 12.76-14.1 15.31-13.94 38.44-35 38.44-71.23 0-35.26-9.29-42.67-17.07-42.67a8.53 8.53 0 0 0-3.53 16.3z"/><path d="M0 162.13a8.53 8.53 0 0 0 8.53 8.54h41.42c.71 3.24 1.25 6.23 1.25 8.53v85.33a8.53 8.53 0 1 0 17.07 0V179.2c0-8.96-3.54-20.36-7.63-33.56-4.42-14.27-9.44-30.44-9.44-43.24V25.6a8.54 8.54 0 0 1 17.07 0 8.53 8.53 0 1 0 17.06 0 8.54 8.54 0 0 1 17.07 0 8.53 8.53 0 1 0 17.06 0 8.54 8.54 0 0 1 17.07 0 8.53 8.53 0 1 0 17.07 0 8.54 8.54 0 0 1 17.07 0v68.27a8.53 8.53 0 1 0 17.06 0V25.6A25.63 25.63 0 0 0 162.13 0a25.5 25.5 0 0 0-17.07 6.54C140.53 2.48 134.56 0 128 0s-12.54 2.48-17.07 6.54A25.49 25.49 0 0 0 93.87 0 25.49 25.49 0 0 0 76.8 6.54 25.49 25.49 0 0 0 59.73 0a25.63 25.63 0 0 0-25.6 25.6v25.6H8.53a8.53 8.53 0 1 0 0 17.07h25.6v34.13c0 15.39 5.43 32.87 10.2 48.3.32.98.6 1.93.9 2.9H8.53A8.53 8.53 0 0 0 0 162.13zM346.9 183.44c13.94 15.3 35 38.43 71.23 38.43 35.27 0 42.67-9.28 42.67-17.07a8.53 8.53 0 0 0-16.3-3.54c-1.68.93-8.05 3.54-26.36 3.54-28.7 0-45.3-18.22-58.61-32.85-9.34-10.25-16.71-18.35-26.73-18.35H221.87a8.53 8.53 0 1 0 0 17.07H332.8c2.47 0 9.47 7.68 14.1 12.77zM264.53 443.73H179.2c-8.97 0-20.37 3.54-33.56 7.63-14.26 4.42-30.44 9.44-43.24 9.44H25.6a8.54 8.54 0 0 1 0-17.07 8.53 8.53 0 1 0 0-17.06 8.54 8.54 0 0 1 0-17.07 8.53 8.53 0 1 0 0-17.07 8.54 8.54 0 0 1 0-17.06 8.53 8.53 0 1 0 0-17.07 8.54 8.54 0 0 1 0-17.07h68.27a8.53 8.53 0 1 0 0-17.06H25.6A25.63 25.63 0 0 0 0 349.87a25.5 25.5 0 0 0 6.54 17.06A25.48 25.48 0 0 0 0 384c0 6.55 2.48 12.54 6.54 17.07A25.49 25.49 0 0 0 0 418.13a25.5 25.5 0 0 0 6.54 17.07A25.49 25.49 0 0 0 0 452.27a25.63 25.63 0 0 0 25.6 25.6h25.6v25.6a8.53 8.53 0 1 0 17.07 0v-25.6h34.13c15.39 0 32.87-5.42 48.29-10.2.99-.32 1.94-.6 2.91-.9v36.7a8.53 8.53 0 1 0 17.07 0v-41.42c3.25-.72 6.23-1.25 8.53-1.25h85.33a8.53 8.53 0 1 0 0-17.07z"/><path d="M505.46 76.8A25.5 25.5 0 0 0 512 59.73a25.63 25.63 0 0 0-25.6-25.6h-25.6V8.53a8.53 8.53 0 1 0-17.07 0v25.6H409.6c-15.39 0-32.87 5.42-48.29 10.2-.99.32-1.94.6-2.91.9V8.53a8.53 8.53 0 1 0-17.07 0v41.42c-3.25.72-6.23 1.25-8.53 1.25h-85.33a8.53 8.53 0 1 0 0 17.07h85.33c8.97 0 20.37-3.54 33.56-7.63 14.26-4.42 30.44-9.44 43.24-9.44h76.8a8.54 8.54 0 0 1 0 17.07 8.53 8.53 0 1 0 0 17.06 8.54 8.54 0 0 1 0 17.07 8.53 8.53 0 1 0 0 17.06 8.54 8.54 0 0 1 0 17.07 8.53 8.53 0 1 0 0 17.07 8.54 8.54 0 0 1 0 17.06h-68.27a8.53 8.53 0 1 0 0 17.07h68.27a25.63 25.63 0 0 0 25.6-25.6 25.5 25.5 0 0 0-6.54-17.07c4.06-4.53 6.54-10.5 6.54-17.06s-2.48-12.54-6.54-17.07A25.49 25.49 0 0 0 512 93.87a25.5 25.5 0 0 0-6.54-17.07zM310.73 444.5c-.92-1.69-3.53-8.05-3.53-26.37 0-28.69 18.22-45.28 32.86-58.6 10.25-9.34 18.34-16.71 18.34-26.73V221.87a8.53 8.53 0 1 0-17.07 0V332.8c0 2.48-7.68 9.47-12.76 14.1-15.31 13.94-38.44 35-38.44 71.23 0 35.26 9.29 42.67 17.07 42.67a8.53 8.53 0 0 0 3.53-16.3z"/><path d="M512 349.87a8.53 8.53 0 0 0-8.53-8.54h-41.42c-.71-3.24-1.25-6.23-1.25-8.53v-85.33a8.53 8.53 0 1 0-17.07 0v85.33c0 8.96 3.54 20.36 7.63 33.56 4.42 14.27 9.44 30.44 9.44 43.24v76.8a8.54 8.54 0 0 1-17.07 0 8.53 8.53 0 1 0-17.06 0 8.54 8.54 0 0 1-17.07 0 8.53 8.53 0 1 0-17.06 0 8.54 8.54 0 0 1-17.07 0 8.53 8.53 0 1 0-17.07 0 8.54 8.54 0 0 1-17.06 0v-68.27a8.53 8.53 0 1 0-17.07 0v68.27a25.63 25.63 0 0 0 25.6 25.6 25.5 25.5 0 0 0 17.07-6.54 25.5 25.5 0 0 0 34.13 0 25.49 25.49 0 0 0 17.06 6.54 25.5 25.5 0 0 0 17.07-6.54 25.49 25.49 0 0 0 17.07 6.54 25.63 25.63 0 0 0 25.6-25.6v-25.6h25.6a8.53 8.53 0 1 0 0-17.07h-25.6V409.6c0-15.39-5.43-32.87-10.2-48.3l-.9-2.9h36.7a8.53 8.53 0 0 0 8.53-8.53z"/></svg>